<?xml version="1.0" standalone="no"?><!DOCTYPE svg PUBLIC "-//W3C//DTD SVG 1.1//EN" "http://www.w3.org/Graphics/SVG/1.1/DTD/svg11.dtd"><svg t="1732892876610" class="icon" viewBox="0 0 1114 1024" version="1.1" xmlns="http://www.w3.org/2000/svg" p-id="1487" xmlns:xlink="http://www.w3.org/1999/xlink" width="217.578125" height="200"><path d="M564.901096 977.984477L88.700976 765.465415c1.513669 0.908201-42.079985-15.742153-73.261557-33.603441 0 26.337832 6.660142 55.703002 31.484305 68.720551l466.209908 208.583523c41.171784 19.374957 59.033073 19.374957 103.534927 0l466.209908-208.583523c23.007762-10.59568 31.484305-41.777251 31.484305-68.720551-29.970637 14.833952-72.353356 36.328045-73.261557 36.328044l-476.200119 208.28079v1.513669m0-10.292946M43.593654 364.645988l470.145445 209.188991c41.474518 19.374957 59.335806 19.374957 104.443129 0l470.145445-209.188991c34.511642-16.044886 35.722577-83.857237 0-103.232194L618.182228 15.896759c-36.933512-21.796827-62.968611-20.585892-104.443129 0L43.593654 261.413794c-35.722577 23.007762-36.933512 83.857237 0 103.232194zM566.414764 38.601787c0.605467 0.302734 2.42187 0.605467 3.027337 0.605467l509.500827 272.157602-511.014495 228.866682-515.555502-228.563948 515.252768-273.065803h-1.210935z" fill="#13227a" p-id="1488"></path><path d="M46.923724 582.311523l466.209908 208.583523c41.171784 19.374957 59.033073 19.374957 103.534927 0l466.209908-208.583523c23.007762-10.59568 31.484305-43.29092 31.484305-70.23422-29.970637 14.833952-72.353356 36.328045-73.261557 36.328045l-476.200119 211.005393-476.20012-211.005393c1.513669 0.908201-42.079985-18.76949-73.261557-36.328045 0 26.337832 6.660142 57.21667 31.484305 70.23422m0 0" fill="#13227a" p-id="1489"></path></svg>